<mxfile host="app.diagrams.net" agent="Mozilla/5.0 (Macintosh; Intel Mac OS X 10_15_7) AppleWebKit/537.36 (KHTML, like Gecko) Chrome/141.0.0.0 Safari/537.36" version="28.2.7">
  <diagram name="Prometheus-Alerting-Architecture" id="yVeSKWiqJsOKpTm1v8kF">
    <mxGraphModel dx="1898" dy="1140" grid="1" gridSize="10" guides="1" tooltips="1" connect="1" arrows="1" fold="1" page="1" pageScale="1" pageWidth="827" pageHeight="1169" math="0" shadow="0">
      <root>
        <mxCell id="0" />
        <mxCell id="1" parent="0" />
        <mxCell id="E9-DkVKQPiYHefDEwBSl-1" value="Aplication 1&lt;br&gt;(metrics endpoint)" style="rounded=1;whiteSpace=wrap;html=1;fillColor=#e1d5e7;strokeColor=#9673a6;" vertex="1" parent="1">
          <mxGeometry x="210" y="410" width="120" height="60" as="geometry" />
        </mxCell>
        <mxCell id="E9-DkVKQPiYHefDEwBSl-2" value="Aplication 2&lt;br&gt;(metrics endpoint)" style="rounded=1;whiteSpace=wrap;html=1;fillColor=#e1d5e7;strokeColor=#9673a6;" vertex="1" parent="1">
          <mxGeometry x="210" y="490" width="120" height="60" as="geometry" />
        </mxCell>
        <mxCell id="E9-DkVKQPiYHefDEwBSl-3" value="Node Exporter&#xa;(system metrics)" style="rounded=1;whiteSpace=wrap;html=1;fillColor=#e3c800;strokeColor=#B09500;fontColor=#000000;" vertex="1" parent="1">
          <mxGeometry x="210" y="570" width="120" height="60" as="geometry" />
        </mxCell>
        <mxCell id="E9-DkVKQPiYHefDEwBSl-4" value="Prometheus Server&#xa;&#xa;• Scraping metrics&#xa;• Evaluating rules&#xa;• Time series DB&#xa;• Alert generation" style="rounded=1;whiteSpace=wrap;html=1;fillColor=#fff2cc;strokeColor=#d6b656;fontSize=12;" vertex="1" parent="1">
          <mxGeometry x="600" y="360" width="160" height="120" as="geometry" />
        </mxCell>
        <mxCell id="E9-DkVKQPiYHefDEwBSl-5" value="Alert Rules&#xa;&#xa;• CPU usage &gt; 80%&#xa;• Memory usage &gt; 90%&#xa;• Service down&#xa;• Response time &gt; 5s" style="rounded=1;whiteSpace=wrap;html=1;fillColor=#f8cecc;strokeColor=#b85450;" vertex="1" parent="1">
          <mxGeometry x="600" y="520" width="160" height="100" as="geometry" />
        </mxCell>
        <mxCell id="E9-DkVKQPiYHefDEwBSl-6" value="Alertmanager&#xa;&#xa;• Deduplication&#xa;• Grouping&#xa;• Routing&#xa;• Silencing&#xa;• Inhibition" style="rounded=1;whiteSpace=wrap;html=1;fillColor=#ffe6cc;strokeColor=#d79b00;fontSize=12;" vertex="1" parent="1">
          <mxGeometry x="850" y="360" width="160" height="120" as="geometry" />
        </mxCell>
        <mxCell id="E9-DkVKQPiYHefDEwBSl-7" value="Email&#xa;Notifications" style="rounded=1;whiteSpace=wrap;html=1;fillColor=#d5e8d4;strokeColor=#82b366;" vertex="1" parent="1">
          <mxGeometry x="1160" y="450" width="100" height="60" as="geometry" />
        </mxCell>
        <mxCell id="E9-DkVKQPiYHefDEwBSl-8" value="Slack&#xa;Integration" style="rounded=1;whiteSpace=wrap;html=1;fillColor=#d5e8d4;strokeColor=#82b366;" vertex="1" parent="1">
          <mxGeometry x="1160" y="530" width="100" height="60" as="geometry" />
        </mxCell>
        <mxCell id="E9-DkVKQPiYHefDEwBSl-9" value="PagerDuty&#xa;Integration" style="rounded=1;whiteSpace=wrap;html=1;fillColor=#d5e8d4;strokeColor=#82b366;" vertex="1" parent="1">
          <mxGeometry x="1160" y="610" width="100" height="60" as="geometry" />
        </mxCell>
        <mxCell id="E9-DkVKQPiYHefDEwBSl-10" value="Custom&#xa;Webhook" style="rounded=1;whiteSpace=wrap;html=1;fillColor=#d5e8d4;strokeColor=#82b366;" vertex="1" parent="1">
          <mxGeometry x="1160" y="690" width="100" height="60" as="geometry" />
        </mxCell>
        <mxCell id="E9-DkVKQPiYHefDEwBSl-11" value="Grafana&#xa;&#xa;• Dashboards&#xa;• Visualization&#xa;• Alert Rules&#xa;• Notification Channels" style="rounded=1;whiteSpace=wrap;html=1;fillColor=#dae8fc;strokeColor=#6c8ebf;fontSize=12;" vertex="1" parent="1">
          <mxGeometry x="600" y="700" width="160" height="120" as="geometry" />
        </mxCell>
        <mxCell id="E9-DkVKQPiYHefDEwBSl-12" value="Grafana Alerting&#xa;&#xa;• Dashboard alerts&#xa;• Multi-datasource&#xa;• Unified alerting&#xa;• Contact points" style="rounded=1;whiteSpace=wrap;html=1;fillColor=#e1d5e7;strokeColor=#9673a6;" vertex="1" parent="1">
          <mxGeometry x="850" y="700" width="160" height="120" as="geometry" />
        </mxCell>
        <mxCell id="E9-DkVKQPiYHefDEwBSl-13" value="Dev Team" style="shape=umlActor;verticalLabelPosition=bottom;verticalAlign=top;html=1;outlineConnect=0;fillColor=#f8cecc;strokeColor=#b85450;" vertex="1" parent="1">
          <mxGeometry x="1360" y="470" width="30" height="60" as="geometry" />
        </mxCell>
        <mxCell id="E9-DkVKQPiYHefDEwBSl-14" value="Ops Team" style="shape=umlActor;verticalLabelPosition=bottom;verticalAlign=top;html=1;outlineConnect=0;fillColor=#f8cecc;strokeColor=#b85450;" vertex="1" parent="1">
          <mxGeometry x="1360" y="570" width="30" height="60" as="geometry" />
        </mxCell>
        <mxCell id="E9-DkVKQPiYHefDEwBSl-15" value="On-Call" style="shape=umlActor;verticalLabelPosition=bottom;verticalAlign=top;html=1;outlineConnect=0;fillColor=#f8cecc;strokeColor=#b85450;" vertex="1" parent="1">
          <mxGeometry x="1360" y="670" width="30" height="60" as="geometry" />
        </mxCell>
        <mxCell id="E9-DkVKQPiYHefDEwBSl-16" value="Evaluates" style="edgeStyle=orthogonalEdgeStyle;rounded=0;orthogonalLoop=1;jettySize=auto;html=1;exitX=0.5;exitY=1;exitDx=0;exitDy=0;entryX=0.5;entryY=0;entryDx=0;entryDy=0;" edge="1" parent="1" source="E9-DkVKQPiYHefDEwBSl-4" target="E9-DkVKQPiYHefDEwBSl-5">
          <mxGeometry relative="1" as="geometry" />
        </mxCell>
        <mxCell id="E9-DkVKQPiYHefDEwBSl-17" value="Fires alerts&#xa;HTTP POST" style="edgeStyle=orthogonalEdgeStyle;rounded=0;orthogonalLoop=1;jettySize=auto;html=1;exitX=1;exitY=0.5;exitDx=0;exitDy=0;entryX=0;entryY=0.5;entryDx=0;entryDy=0;" edge="1" parent="1" source="E9-DkVKQPiYHefDEwBSl-4" target="E9-DkVKQPiYHefDEwBSl-6">
          <mxGeometry relative="1" as="geometry" />
        </mxCell>
        <mxCell id="E9-DkVKQPiYHefDEwBSl-18" value="SMTP" style="edgeStyle=orthogonalEdgeStyle;rounded=0;orthogonalLoop=1;jettySize=auto;html=1;exitX=1;exitY=0.25;exitDx=0;exitDy=0;entryX=0;entryY=0.5;entryDx=0;entryDy=0;" edge="1" parent="1" source="E9-DkVKQPiYHefDEwBSl-6" target="E9-DkVKQPiYHefDEwBSl-7">
          <mxGeometry relative="1" as="geometry" />
        </mxCell>
        <mxCell id="E9-DkVKQPiYHefDEwBSl-19" value="Webhook" style="edgeStyle=orthogonalEdgeStyle;rounded=0;orthogonalLoop=1;jettySize=auto;html=1;exitX=1;exitY=0.5;exitDx=0;exitDy=0;entryX=0;entryY=0.5;entryDx=0;entryDy=0;" edge="1" parent="1" source="E9-DkVKQPiYHefDEwBSl-6" target="E9-DkVKQPiYHefDEwBSl-8">
          <mxGeometry relative="1" as="geometry" />
        </mxCell>
        <mxCell id="E9-DkVKQPiYHefDEwBSl-20" value="API" style="edgeStyle=orthogonalEdgeStyle;rounded=0;orthogonalLoop=1;jettySize=auto;html=1;exitX=1;exitY=0.75;exitDx=0;exitDy=0;entryX=0;entryY=0.5;entryDx=0;entryDy=0;" edge="1" parent="1" source="E9-DkVKQPiYHefDEwBSl-6" target="E9-DkVKQPiYHefDEwBSl-9">
          <mxGeometry relative="1" as="geometry" />
        </mxCell>
        <mxCell id="E9-DkVKQPiYHefDEwBSl-21" value="HTTP POST" style="edgeStyle=orthogonalEdgeStyle;rounded=0;orthogonalLoop=1;jettySize=auto;html=1;exitX=1;exitY=1;exitDx=0;exitDy=0;entryX=0;entryY=0.5;entryDx=0;entryDy=0;" edge="1" parent="1" source="E9-DkVKQPiYHefDEwBSl-6" target="E9-DkVKQPiYHefDEwBSl-10">
          <mxGeometry relative="1" as="geometry">
            <Array as="points">
              <mxPoint x="1040" y="480" />
              <mxPoint x="1040" y="720" />
            </Array>
          </mxGeometry>
        </mxCell>
        <mxCell id="E9-DkVKQPiYHefDEwBSl-22" value="PromQL queries&#xa;Data source" style="edgeStyle=orthogonalEdgeStyle;rounded=0;orthogonalLoop=1;jettySize=auto;html=1;exitX=0.5;exitY=1;exitDx=0;exitDy=0;entryX=0.5;entryY=0;entryDx=0;entryDy=0;" edge="1" parent="1" source="E9-DkVKQPiYHefDEwBSl-4" target="E9-DkVKQPiYHefDEwBSl-11">
          <mxGeometry relative="1" as="geometry">
            <mxPoint x="680" y="490" as="sourcePoint" />
            <mxPoint x="680" y="690" as="targetPoint" />
            <Array as="points">
              <mxPoint x="680" y="620" />
              <mxPoint x="680" y="620" />
            </Array>
          </mxGeometry>
        </mxCell>
        <mxCell id="E9-DkVKQPiYHefDEwBSl-23" value="Alert rules&#xa;evaluation" style="edgeStyle=orthogonalEdgeStyle;rounded=0;orthogonalLoop=1;jettySize=auto;html=1;exitX=1;exitY=0.5;exitDx=0;exitDy=0;entryX=0;entryY=0.5;entryDx=0;entryDy=0;" edge="1" parent="1" source="E9-DkVKQPiYHefDEwBSl-11" target="E9-DkVKQPiYHefDEwBSl-12">
          <mxGeometry relative="1" as="geometry" />
        </mxCell>
        <mxCell id="E9-DkVKQPiYHefDEwBSl-25" value="" style="edgeStyle=orthogonalEdgeStyle;rounded=0;orthogonalLoop=1;jettySize=auto;html=1;exitX=1;exitY=0.5;exitDx=0;exitDy=0;entryX=0;entryY=0.5;entryDx=0;entryDy=0;" edge="1" parent="1" source="E9-DkVKQPiYHefDEwBSl-7" target="E9-DkVKQPiYHefDEwBSl-13">
          <mxGeometry relative="1" as="geometry" />
        </mxCell>
        <mxCell id="E9-DkVKQPiYHefDEwBSl-26" value="" style="edgeStyle=orthogonalEdgeStyle;rounded=0;orthogonalLoop=1;jettySize=auto;html=1;exitX=1;exitY=0.5;exitDx=0;exitDy=0;entryX=0;entryY=0.5;entryDx=0;entryDy=0;" edge="1" parent="1" source="E9-DkVKQPiYHefDEwBSl-8" target="E9-DkVKQPiYHefDEwBSl-14">
          <mxGeometry relative="1" as="geometry" />
        </mxCell>
        <mxCell id="E9-DkVKQPiYHefDEwBSl-27" value="" style="edgeStyle=orthogonalEdgeStyle;rounded=0;orthogonalLoop=1;jettySize=auto;html=1;exitX=1;exitY=0.5;exitDx=0;exitDy=0;entryX=0;entryY=0.5;entryDx=0;entryDy=0;" edge="1" parent="1" source="E9-DkVKQPiYHefDEwBSl-9" target="E9-DkVKQPiYHefDEwBSl-15">
          <mxGeometry relative="1" as="geometry" />
        </mxCell>
        <mxCell id="E9-DkVKQPiYHefDEwBSl-28" value="Leyenda:" style="text;html=1;strokeColor=none;fillColor=none;align=left;verticalAlign=middle;whiteSpace=wrap;rounded=0;fontSize=14;fontStyle=1;" vertex="1" parent="1">
          <mxGeometry x="400" y="880" width="80" height="30" as="geometry" />
        </mxCell>
        <mxCell id="E9-DkVKQPiYHefDEwBSl-29" value="Data sources" style="rounded=1;whiteSpace=wrap;html=1;fillColor=#e1d5e7;strokeColor=#9673a6;fontSize=10;" vertex="1" parent="1">
          <mxGeometry x="400" y="910" width="100" height="30" as="geometry" />
        </mxCell>
        <mxCell id="E9-DkVKQPiYHefDEwBSl-30" value="Prometheus" style="rounded=1;whiteSpace=wrap;html=1;fillColor=#fff2cc;strokeColor=#d6b656;fontSize=10;" vertex="1" parent="1">
          <mxGeometry x="520" y="910" width="100" height="30" as="geometry" />
        </mxCell>
        <mxCell id="E9-DkVKQPiYHefDEwBSl-31" value="Alertmanager" style="rounded=1;whiteSpace=wrap;html=1;fillColor=#ffe6cc;strokeColor=#d79b00;fontSize=10;" vertex="1" parent="1">
          <mxGeometry x="640" y="910" width="100" height="30" as="geometry" />
        </mxCell>
        <mxCell id="E9-DkVKQPiYHefDEwBSl-32" value="Grafana" style="rounded=1;whiteSpace=wrap;html=1;fillColor=#dae8fc;strokeColor=#6c8ebf;fontSize=10;" vertex="1" parent="1">
          <mxGeometry x="760" y="910" width="100" height="30" as="geometry" />
        </mxCell>
        <mxCell id="E9-DkVKQPiYHefDEwBSl-33" value="Notifications" style="rounded=1;whiteSpace=wrap;html=1;fillColor=#d5e8d4;strokeColor=#82b366;fontSize=10;" vertex="1" parent="1">
          <mxGeometry x="880" y="910" width="100" height="30" as="geometry" />
        </mxCell>
        <mxCell id="E9-DkVKQPiYHefDEwBSl-34" value="Alert rules" style="rounded=1;whiteSpace=wrap;html=1;fillColor=#f8cecc;strokeColor=#b85450;fontSize=10;" vertex="1" parent="1">
          <mxGeometry x="1000" y="910" width="100" height="30" as="geometry" />
        </mxCell>
        <mxCell id="E9-DkVKQPiYHefDEwBSl-35" value="Grafana&lt;br&gt;Loki" style="rounded=1;whiteSpace=wrap;html=1;fillColor=#dae8fc;strokeColor=#6c8ebf;fontSize=12;" vertex="1" parent="1">
          <mxGeometry x="420" y="670" width="140" height="50" as="geometry" />
        </mxCell>
        <mxCell id="E9-DkVKQPiYHefDEwBSl-36" value="" style="endArrow=classic;html=1;rounded=0;entryX=1;entryY=0.5;entryDx=0;entryDy=0;exitX=0;exitY=0.25;exitDx=0;exitDy=0;" edge="1" parent="1" source="E9-DkVKQPiYHefDEwBSl-4" target="E9-DkVKQPiYHefDEwBSl-1">
          <mxGeometry width="50" height="50" relative="1" as="geometry">
            <mxPoint x="780" y="700" as="sourcePoint" />
            <mxPoint x="830" y="650" as="targetPoint" />
          </mxGeometry>
        </mxCell>
        <mxCell id="E9-DkVKQPiYHefDEwBSl-37" value="HTTP&lt;br&gt;&amp;nbsp;scrape&lt;br&gt;&amp;nbsp;metrics" style="edgeLabel;html=1;align=center;verticalAlign=middle;resizable=0;points=[];" vertex="1" connectable="0" parent="E9-DkVKQPiYHefDEwBSl-36">
          <mxGeometry x="-0.0547" relative="1" as="geometry">
            <mxPoint x="1" as="offset" />
          </mxGeometry>
        </mxCell>
        <mxCell id="E9-DkVKQPiYHefDEwBSl-38" value="" style="endArrow=classic;html=1;rounded=0;exitX=-0.006;exitY=0.438;exitDx=0;exitDy=0;exitPerimeter=0;entryX=1;entryY=0.5;entryDx=0;entryDy=0;" edge="1" parent="1" source="E9-DkVKQPiYHefDEwBSl-4" target="E9-DkVKQPiYHefDEwBSl-2">
          <mxGeometry width="50" height="50" relative="1" as="geometry">
            <mxPoint x="780" y="700" as="sourcePoint" />
            <mxPoint x="520" y="413" as="targetPoint" />
          </mxGeometry>
        </mxCell>
        <mxCell id="E9-DkVKQPiYHefDEwBSl-39" value="HTTP &lt;br&gt;scrape&lt;br&gt;&amp;nbsp;metrics" style="edgeLabel;html=1;align=center;verticalAlign=middle;resizable=0;points=[];" vertex="1" connectable="0" parent="E9-DkVKQPiYHefDEwBSl-38">
          <mxGeometry x="-0.0711" y="1" relative="1" as="geometry">
            <mxPoint as="offset" />
          </mxGeometry>
        </mxCell>
        <mxCell id="E9-DkVKQPiYHefDEwBSl-40" value="" style="endArrow=classic;html=1;rounded=0;entryX=1;entryY=0.5;entryDx=0;entryDy=0;exitX=0;exitY=0.75;exitDx=0;exitDy=0;" edge="1" parent="1" source="E9-DkVKQPiYHefDEwBSl-4" target="E9-DkVKQPiYHefDEwBSl-3">
          <mxGeometry width="50" height="50" relative="1" as="geometry">
            <mxPoint x="780" y="700" as="sourcePoint" />
            <mxPoint x="830" y="650" as="targetPoint" />
          </mxGeometry>
        </mxCell>
        <mxCell id="E9-DkVKQPiYHefDEwBSl-41" value="HTTP &lt;br&gt;scrape&lt;br&gt;&amp;nbsp;metrics" style="edgeLabel;html=1;align=center;verticalAlign=middle;resizable=0;points=[];" vertex="1" connectable="0" parent="E9-DkVKQPiYHefDEwBSl-40">
          <mxGeometry x="0.0122" y="-1" relative="1" as="geometry">
            <mxPoint as="offset" />
          </mxGeometry>
        </mxCell>
        <mxCell id="E9-DkVKQPiYHefDEwBSl-42" value="Grafana&lt;br&gt;Tempo" style="rounded=1;whiteSpace=wrap;html=1;fillColor=#dae8fc;strokeColor=#6c8ebf;fontSize=12;" vertex="1" parent="1">
          <mxGeometry x="420" y="750" width="140" height="50" as="geometry" />
        </mxCell>
        <mxCell id="E9-DkVKQPiYHefDEwBSl-43" value="" style="endArrow=none;html=1;rounded=0;entryX=0;entryY=0.5;entryDx=0;entryDy=0;exitX=1;exitY=0.75;exitDx=0;exitDy=0;" edge="1" parent="1" source="E9-DkVKQPiYHefDEwBSl-2" target="E9-DkVKQPiYHefDEwBSl-35">
          <mxGeometry width="50" height="50" relative="1" as="geometry">
            <mxPoint x="780" y="700" as="sourcePoint" />
            <mxPoint x="830" y="650" as="targetPoint" />
            <Array as="points" />
          </mxGeometry>
        </mxCell>
        <mxCell id="E9-DkVKQPiYHefDEwBSl-44" value="" style="endArrow=none;html=1;rounded=0;entryX=0;entryY=0.25;entryDx=0;entryDy=0;" edge="1" parent="1" target="E9-DkVKQPiYHefDEwBSl-2">
          <mxGeometry width="50" height="50" relative="1" as="geometry">
            <mxPoint x="420" y="760" as="sourcePoint" />
            <mxPoint x="670" y="650" as="targetPoint" />
            <Array as="points">
              <mxPoint x="180" y="760" />
              <mxPoint x="180" y="505" />
            </Array>
          </mxGeometry>
        </mxCell>
        <mxCell id="E9-DkVKQPiYHefDEwBSl-45" value="" style="endArrow=none;html=1;rounded=0;entryX=0.25;entryY=0;entryDx=0;entryDy=0;exitX=1;exitY=0.75;exitDx=0;exitDy=0;" edge="1" parent="1" source="E9-DkVKQPiYHefDEwBSl-1" target="E9-DkVKQPiYHefDEwBSl-35">
          <mxGeometry width="50" height="50" relative="1" as="geometry">
            <mxPoint x="620" y="700" as="sourcePoint" />
            <mxPoint x="670" y="650" as="targetPoint" />
          </mxGeometry>
        </mxCell>
        <mxCell id="E9-DkVKQPiYHefDEwBSl-46" value="" style="endArrow=none;html=1;rounded=0;exitX=0;exitY=0.75;exitDx=0;exitDy=0;entryX=0;entryY=0.25;entryDx=0;entryDy=0;" edge="1" parent="1" source="E9-DkVKQPiYHefDEwBSl-42" target="E9-DkVKQPiYHefDEwBSl-1">
          <mxGeometry width="50" height="50" relative="1" as="geometry">
            <mxPoint x="620" y="700" as="sourcePoint" />
            <mxPoint x="670" y="650" as="targetPoint" />
            <Array as="points">
              <mxPoint x="160" y="788" />
              <mxPoint x="160" y="425" />
            </Array>
          </mxGeometry>
        </mxCell>
        <mxCell id="E9-DkVKQPiYHefDEwBSl-47" value="Prometheus&lt;br&gt;Exporter" style="rounded=1;whiteSpace=wrap;html=1;fillColor=#fff2cc;strokeColor=#d6b656;fontSize=10;" vertex="1" parent="1">
          <mxGeometry x="520" y="960" width="100" height="30" as="geometry" />
        </mxCell>
        <mxCell id="E9-DkVKQPiYHefDEwBSl-48" value="" style="endArrow=classic;html=1;rounded=0;entryX=0.5;entryY=1;entryDx=0;entryDy=0;exitX=0.5;exitY=0;exitDx=0;exitDy=0;" edge="1" parent="1" source="E9-DkVKQPiYHefDEwBSl-12" target="E9-DkVKQPiYHefDEwBSl-6">
          <mxGeometry width="50" height="50" relative="1" as="geometry">
            <mxPoint x="890" y="670" as="sourcePoint" />
            <mxPoint x="940" y="620" as="targetPoint" />
          </mxGeometry>
        </mxCell>
        <mxCell id="E9-DkVKQPiYHefDEwBSl-49" value="" style="endArrow=classic;html=1;rounded=0;entryX=0;entryY=1;entryDx=0;entryDy=0;exitX=1.013;exitY=0.82;exitDx=0;exitDy=0;exitPerimeter=0;" edge="1" parent="1" source="E9-DkVKQPiYHefDEwBSl-12" target="E9-DkVKQPiYHefDEwBSl-10">
          <mxGeometry width="50" height="50" relative="1" as="geometry">
            <mxPoint x="910" y="690" as="sourcePoint" />
            <mxPoint x="960" y="640" as="targetPoint" />
          </mxGeometry>
        </mxCell>
        <mxCell id="E9-DkVKQPiYHefDEwBSl-50" value="" style="endArrow=classic;html=1;rounded=0;entryX=0;entryY=1;entryDx=0;entryDy=0;exitX=1.006;exitY=0.636;exitDx=0;exitDy=0;exitPerimeter=0;" edge="1" parent="1" source="E9-DkVKQPiYHefDEwBSl-12" target="E9-DkVKQPiYHefDEwBSl-9">
          <mxGeometry width="50" height="50" relative="1" as="geometry">
            <mxPoint x="910" y="690" as="sourcePoint" />
            <mxPoint x="960" y="640" as="targetPoint" />
          </mxGeometry>
        </mxCell>
        <mxCell id="E9-DkVKQPiYHefDEwBSl-51" value="" style="endArrow=classic;html=1;rounded=0;entryX=0;entryY=0.75;entryDx=0;entryDy=0;exitX=0.75;exitY=0;exitDx=0;exitDy=0;" edge="1" parent="1" source="E9-DkVKQPiYHefDEwBSl-12" target="E9-DkVKQPiYHefDEwBSl-8">
          <mxGeometry width="50" height="50" relative="1" as="geometry">
            <mxPoint x="910" y="690" as="sourcePoint" />
            <mxPoint x="960" y="640" as="targetPoint" />
            <Array as="points">
              <mxPoint x="970" y="575" />
            </Array>
          </mxGeometry>
        </mxCell>
        <mxCell id="E9-DkVKQPiYHefDEwBSl-52" value="" style="endArrow=classic;html=1;rounded=0;entryX=0;entryY=0.75;entryDx=0;entryDy=0;exitX=0.605;exitY=-0.013;exitDx=0;exitDy=0;exitPerimeter=0;" edge="1" parent="1" source="E9-DkVKQPiYHefDEwBSl-12" target="E9-DkVKQPiYHefDEwBSl-7">
          <mxGeometry width="50" height="50" relative="1" as="geometry">
            <mxPoint x="910" y="690" as="sourcePoint" />
            <mxPoint x="960" y="640" as="targetPoint" />
            <Array as="points">
              <mxPoint x="950" y="495" />
            </Array>
          </mxGeometry>
        </mxCell>
      </root>
    </mxGraphModel>
  </diagram>
</mxfile>
